<?xml version="1.0" encoding="utf-8" standalone="no"?>
<!DOCTYPE svg PUBLIC "-//W3C//DTD SVG 1.1//EN"
  "http://www.w3.org/Graphics/SVG/1.1/DTD/svg11.dtd">
<svg xmlns:xlink="http://www.w3.org/1999/xlink" width="576pt" height="396pt" viewBox="0 0 576 396" xmlns="http://www.w3.org/2000/svg" version="1.1">
 <metadata>
  <rdf:RDF xmlns:dc="http://purl.org/dc/elements/1.1/" xmlns:cc="http://creativecommons.org/ns#" xmlns:rdf="http://www.w3.org/1999/02/22-rdf-syntax-ns#">
   <cc:Work>
    <dc:type rdf:resource="http://purl.org/dc/dcmitype/StillImage"/>
    <dc:date>2025-12-05T11:58:34.411967</dc:date>
    <dc:format>image/svg+xml</dc:format>
    <dc:creator>
     <cc:Agent>
      <dc:title>Matplotlib v3.10.7, https://matplotlib.org/</dc:title>
     </cc:Agent>
    </dc:creator>
   </cc:Work>
  </rdf:RDF>
 </metadata>
 <defs>
  <style type="text/css">*{stroke-linejoin: round; stroke-linecap: butt}</style>
 </defs>
 <g id="figure_1">
  <g id="patch_1">
   <path d="M 0 396 
L 576 396 
L 576 0 
L 0 0 
z
" style="fill: #ffffff"/>
  </g>
  <g id="axes_1">
   <g id="patch_2">
    <path d="M 5.76 392.04 
L 570.24 392.04 
L 570.24 3.96 
L 5.76 3.96 
z
" style="fill: #eaeaf2"/>
   </g>
   <g id="matplotlib.axis_1">
    <g id="xtick_1">
     <g id="line2d_1">
      <path d="M 5.76 392.04 
L 5.76 3.96 
" clip-path="url(#p12576f4e3f)" style="fill: none; stroke: #ffffff; stroke-linecap: round"/>
     </g>
     <g id="line2d_2"/>
     <g id="line2d_3"/>
     <g id="text_1">
      <!-- 0 -->
      <g style="fill: #262626" transform="translate(2.979531 406.197812) scale(0.1 -0.1)">
       <defs>
        <path id="ArialMT-30" d="M 266 2259 
Q 266 3072 433 3567 
Q 600 4063 929 4331 
Q 1259 4600 1759 4600 
Q 2128 4600 2406 4451 
Q 2684 4303 2865 4023 
Q 3047 3744 3150 3342 
Q 3253 2941 3253 2259 
Q 3253 1453 3087 958 
Q 2922 463 2592 192 
Q 2263 -78 1759 -78 
Q 1097 -78 719 397 
Q 266 969 266 2259 
z
M 844 2259 
Q 844 1131 1108 757 
Q 1372 384 1759 384 
Q 2147 384 2411 759 
Q 2675 1134 2675 2259 
Q 2675 3391 2411 3762 
Q 2147 4134 1753 4134 
Q 1366 4134 1134 3806 
Q 844 3388 844 2259 
z
" transform="scale(0.015625)"/>
       </defs>
       <use xlink:href="#ArialMT-30"/>
      </g>
     </g>
    </g>
    <g id="xtick_2">
     <g id="line2d_4">
      <path d="M 118.656 392.04 
L 118.656 3.96 
" clip-path="url(#p12576f4e3f)" style="fill: none; stroke: #ffffff; stroke-linecap: round"/>
     </g>
     <g id="line2d_5"/>
     <g id="line2d_6"/>
     <g id="text_2">
      <!-- 2 -->
      <g style="fill: #262626" transform="translate(115.875531 406.197812) scale(0.1 -0.1)">
       <defs>
        <path id="ArialMT-32" d="M 3222 541 
L 3222 0 
L 194 0 
Q 188 203 259 391 
Q 375 700 629 1000 
Q 884 1300 1366 1694 
Q 2113 2306 2375 2664 
Q 2638 3022 2638 3341 
Q 2638 3675 2398 3904 
Q 2159 4134 1775 4134 
Q 1369 4134 1125 3890 
Q 881 3647 878 3216 
L 300 3275 
Q 359 3922 746 4261 
Q 1134 4600 1788 4600 
Q 2447 4600 2831 4234 
Q 3216 3869 3216 3328 
Q 3216 3053 3103 2787 
Q 2991 2522 2730 2228 
Q 2469 1934 1863 1422 
Q 1356 997 1212 845 
Q 1069 694 975 541 
L 3222 541 
z
" transform="scale(0.015625)"/>
       </defs>
       <use xlink:href="#ArialMT-32"/>
      </g>
     </g>
    </g>
    <g id="xtick_3">
     <g id="line2d_7">
      <path d="M 231.552 392.04 
L 231.552 3.96 
" clip-path="url(#p12576f4e3f)" style="fill: none; stroke: #ffffff; stroke-linecap: round"/>
     </g>
     <g id="line2d_8"/>
     <g id="line2d_9"/>
     <g id="text_3">
      <!-- 4 -->
      <g style="fill: #262626" transform="translate(228.771531 406.197812) scale(0.1 -0.1)">
       <defs>
        <path id="ArialMT-34" d="M 2069 0 
L 2069 1097 
L 81 1097 
L 81 1613 
L 2172 4581 
L 2631 4581 
L 2631 1613 
L 3250 1613 
L 3250 1097 
L 2631 1097 
L 2631 0 
L 2069 0 
z
M 2069 1613 
L 2069 3678 
L 634 1613 
L 2069 1613 
z
" transform="scale(0.015625)"/>
       </defs>
       <use xlink:href="#ArialMT-34"/>
      </g>
     </g>
    </g>
    <g id="xtick_4">
     <g id="line2d_10">
      <path d="M 344.448 392.04 
L 344.448 3.96 
" clip-path="url(#p12576f4e3f)" style="fill: none; stroke: #ffffff; stroke-linecap: round"/>
     </g>
     <g id="line2d_11"/>
     <g id="line2d_12"/>
     <g id="text_4">
      <!-- 6 -->
      <g style="fill: #262626" transform="translate(341.667531 406.197812) scale(0.1 -0.1)">
       <defs>
        <path id="ArialMT-36" d="M 3184 3459 
L 2625 3416 
Q 2550 3747 2413 3897 
Q 2184 4138 1850 4138 
Q 1581 4138 1378 3988 
Q 1113 3794 959 3422 
Q 806 3050 800 2363 
Q 1003 2672 1297 2822 
Q 1591 2972 1913 2972 
Q 2475 2972 2870 2558 
Q 3266 2144 3266 1488 
Q 3266 1056 3080 686 
Q 2894 316 2569 119 
Q 2244 -78 1831 -78 
Q 1128 -78 684 439 
Q 241 956 241 2144 
Q 241 3472 731 4075 
Q 1159 4600 1884 4600 
Q 2425 4600 2770 4297 
Q 3116 3994 3184 3459 
z
M 888 1484 
Q 888 1194 1011 928 
Q 1134 663 1356 523 
Q 1578 384 1822 384 
Q 2178 384 2434 671 
Q 2691 959 2691 1453 
Q 2691 1928 2437 2201 
Q 2184 2475 1800 2475 
Q 1419 2475 1153 2201 
Q 888 1928 888 1484 
z
" transform="scale(0.015625)"/>
       </defs>
       <use xlink:href="#ArialMT-36"/>
      </g>
     </g>
    </g>
    <g id="xtick_5">
     <g id="line2d_13">
      <path d="M 457.344 392.04 
L 457.344 3.96 
" clip-path="url(#p12576f4e3f)" style="fill: none; stroke: #ffffff; stroke-linecap: round"/>
     </g>
     <g id="line2d_14"/>
     <g id="line2d_15"/>
     <g id="text_5">
      <!-- 8 -->
      <g style="fill: #262626" transform="translate(454.563531 406.197812) scale(0.1 -0.1)">
       <defs>
        <path id="ArialMT-38" d="M 1131 2484 
Q 781 2613 612 2850 
Q 444 3088 444 3419 
Q 444 3919 803 4259 
Q 1163 4600 1759 4600 
Q 2359 4600 2725 4251 
Q 3091 3903 3091 3403 
Q 3091 3084 2923 2848 
Q 2756 2613 2416 2484 
Q 2838 2347 3058 2040 
Q 3278 1734 3278 1309 
Q 3278 722 2862 322 
Q 2447 -78 1769 -78 
Q 1091 -78 675 323 
Q 259 725 259 1325 
Q 259 1772 486 2073 
Q 713 2375 1131 2484 
z
M 1019 3438 
Q 1019 3113 1228 2906 
Q 1438 2700 1772 2700 
Q 2097 2700 2305 2904 
Q 2513 3109 2513 3406 
Q 2513 3716 2298 3927 
Q 2084 4138 1766 4138 
Q 1444 4138 1231 3931 
Q 1019 3725 1019 3438 
z
M 838 1322 
Q 838 1081 952 856 
Q 1066 631 1291 507 
Q 1516 384 1775 384 
Q 2178 384 2440 643 
Q 2703 903 2703 1303 
Q 2703 1709 2433 1975 
Q 2163 2241 1756 2241 
Q 1359 2241 1098 1978 
Q 838 1716 838 1322 
z
" transform="scale(0.015625)"/>
       </defs>
       <use xlink:href="#ArialMT-38"/>
      </g>
     </g>
    </g>
    <g id="xtick_6">
     <g id="line2d_16">
      <path d="M 570.24 392.04 
L 570.24 3.96 
" clip-path="url(#p12576f4e3f)" style="fill: none; stroke: #ffffff; stroke-linecap: round"/>
     </g>
     <g id="line2d_17"/>
     <g id="line2d_18"/>
     <g id="text_6">
      <!-- 10 -->
      <g style="fill: #262626" transform="translate(564.679062 406.197812) scale(0.1 -0.1)">
       <defs>
        <path id="ArialMT-31" d="M 2384 0 
L 1822 0 
L 1822 3584 
Q 1619 3391 1289 3197 
Q 959 3003 697 2906 
L 697 3450 
Q 1169 3672 1522 3987 
Q 1875 4303 2022 4600 
L 2384 4600 
L 2384 0 
z
" transform="scale(0.015625)"/>
       </defs>
       <use xlink:href="#ArialMT-31"/>
       <use xlink:href="#ArialMT-30" transform="translate(55.615234 0)"/>
      </g>
     </g>
    </g>
   </g>
   <g id="matplotlib.axis_2">
    <g id="ytick_1">
     <g id="line2d_19">
      <path d="M 5.76 392.04 
L 570.24 392.04 
" clip-path="url(#p12576f4e3f)" style="fill: none; stroke: #ffffff; stroke-linecap: round"/>
     </g>
     <g id="line2d_20"/>
     <g id="line2d_21"/>
     <g id="text_7">
      <!-- −1.0 -->
      <g style="fill: #262626" transform="translate(-20.980625 394.625156) scale(0.1 -0.1)">
       <defs>
        <path id="ArialMT-2212" d="M 3381 1997 
L 356 1997 
L 356 2522 
L 3381 2522 
L 3381 1997 
z
" transform="scale(0.015625)"/>
        <path id="ArialMT-2e" d="M 581 0 
L 581 641 
L 1222 641 
L 1222 0 
L 581 0 
z
" transform="scale(0.015625)"/>
       </defs>
       <use xlink:href="#ArialMT-2212"/>
       <use xlink:href="#ArialMT-31" transform="translate(58.398438 0)"/>
       <use xlink:href="#ArialMT-2e" transform="translate(114.013672 0)"/>
       <use xlink:href="#ArialMT-30" transform="translate(141.796875 0)"/>
      </g>
     </g>
    </g>
    <g id="ytick_2">
     <g id="line2d_22">
      <path d="M 5.76 295.02 
L 570.24 295.02 
" clip-path="url(#p12576f4e3f)" style="fill: none; stroke: #ffffff; stroke-linecap: round"/>
     </g>
     <g id="line2d_23"/>
     <g id="line2d_24"/>
     <g id="text_8">
      <!-- −0.5 -->
      <g style="fill: #262626" transform="translate(-20.980625 297.605156) scale(0.1 -0.1)">
       <defs>
        <path id="ArialMT-35" d="M 266 1200 
L 856 1250 
Q 922 819 1161 601 
Q 1400 384 1738 384 
Q 2144 384 2425 690 
Q 2706 997 2706 1503 
Q 2706 1984 2436 2262 
Q 2166 2541 1728 2541 
Q 1456 2541 1237 2417 
Q 1019 2294 894 2097 
L 366 2166 
L 809 4519 
L 3088 4519 
L 3088 3981 
L 1259 3981 
L 1013 2750 
Q 1425 3038 1878 3038 
Q 2478 3038 2890 2622 
Q 3303 2206 3303 1553 
Q 3303 931 2941 478 
Q 2500 -78 1738 -78 
Q 1113 -78 717 272 
Q 322 622 266 1200 
z
" transform="scale(0.015625)"/>
       </defs>
       <use xlink:href="#ArialMT-2212"/>
       <use xlink:href="#ArialMT-30" transform="translate(58.398438 0)"/>
       <use xlink:href="#ArialMT-2e" transform="translate(114.013672 0)"/>
       <use xlink:href="#ArialMT-35" transform="translate(141.796875 0)"/>
      </g>
     </g>
    </g>
    <g id="ytick_3">
     <g id="line2d_25">
      <path d="M 5.76 198 
L 570.24 198 
" clip-path="url(#p12576f4e3f)" style="fill: none; stroke: #ffffff; stroke-linecap: round"/>
     </g>
     <g id="line2d_26"/>
     <g id="line2d_27"/>
     <g id="text_9">
      <!-- 0.0 -->
      <g style="fill: #262626" transform="translate(-15.14 200.585156) scale(0.1 -0.1)">
       <use xlink:href="#ArialMT-30"/>
       <use xlink:href="#ArialMT-2e" transform="translate(55.615234 0)"/>
       <use xlink:href="#ArialMT-30" transform="translate(83.398438 0)"/>
      </g>
     </g>
    </g>
    <g id="ytick_4">
     <g id="line2d_28">
      <path d="M 5.76 100.98 
L 570.24 100.98 
" clip-path="url(#p12576f4e3f)" style="fill: none; stroke: #ffffff; stroke-linecap: round"/>
     </g>
     <g id="line2d_29"/>
     <g id="line2d_30"/>
     <g id="text_10">
      <!-- 0.5 -->
      <g style="fill: #262626" transform="translate(-15.14 103.565156) scale(0.1 -0.1)">
       <use xlink:href="#ArialMT-30"/>
       <use xlink:href="#ArialMT-2e" transform="translate(55.615234 0)"/>
       <use xlink:href="#ArialMT-35" transform="translate(83.398438 0)"/>
      </g>
     </g>
    </g>
    <g id="ytick_5">
     <g id="line2d_31">
      <path d="M 5.76 3.96 
L 570.24 3.96 
" clip-path="url(#p12576f4e3f)" style="fill: none; stroke: #ffffff; stroke-linecap: round"/>
     </g>
     <g id="line2d_32"/>
     <g id="line2d_33"/>
     <g id="text_11">
      <!-- 1.0 -->
      <g style="fill: #262626" transform="translate(-15.14 6.545156) scale(0.1 -0.1)">
       <use xlink:href="#ArialMT-31"/>
       <use xlink:href="#ArialMT-2e" transform="translate(55.615234 0)"/>
       <use xlink:href="#ArialMT-30" transform="translate(83.398438 0)"/>
      </g>
     </g>
    </g>
   </g>
   <g id="line2d_34">
    <path d="M 5.76 198 
L 11.461818 178.433313 
L 17.163636 159.066096 
L 22.865455 140.095785 
L 28.567273 121.715772 
L 34.269091 104.113428 
L 39.970909 87.468198 
L 45.672727 71.94977 
L 51.374545 57.716345 
L 57.076364 44.913022 
L 62.778182 33.670325 
L 68.48 24.102865 
L 74.181818 16.308177 
L 79.883636 10.365722 
L 85.585455 6.336079 
L 91.287273 4.26033 
L 96.989091 4.159634 
L 102.690909 6.035018 
L 108.392727 9.867364 
L 114.094545 15.617603 
L 119.796364 23.227115 
L 125.498182 32.618327 
L 131.2 43.6955 
L 136.901818 56.34571 
L 142.603636 70.439997 
L 148.305455 85.834676 
L 154.007273 102.372811 
L 159.709091 119.885804 
L 165.410909 138.195122 
L 171.112727 157.114113 
L 176.814545 176.44991 
L 182.516364 196.005397 
L 188.218182 215.581217 
L 193.92 234.977808 
L 199.621818 253.997433 
L 205.323636 272.4462 
L 211.025455 290.136035 
L 216.727273 306.886601 
L 222.429091 322.527137 
L 228.130909 336.898198 
L 233.832727 349.853279 
L 239.534545 361.260312 
L 245.236364 371.003009 
L 250.938182 378.98205 
L 256.64 385.116093 
L 262.341818 389.342606 
L 268.043636 391.618502 
L 273.745455 391.92058 
L 279.447273 390.245759 
L 285.149091 386.611115 
L 290.850909 381.053699 
L 296.552727 373.630167 
L 302.254545 364.416196 
L 307.956364 353.505717 
L 313.658182 341.009956 
L 319.36 327.056298 
L 325.061818 311.786993 
L 330.763636 295.357701 
L 336.465455 277.935909 
L 342.167273 259.699221 
L 347.869091 240.833549 
L 353.570909 221.531215 
L 359.272727 201.988996 
L 364.974545 182.406111 
L 370.676364 162.982196 
L 376.378182 143.915266 
L 382.08 125.399695 
L 387.781818 107.624239 
L 393.483636 90.770106 
L 399.185455 75.009114 
L 404.887273 60.501937 
L 410.589091 47.396466 
L 416.290909 35.826302 
L 421.992727 25.909397 
L 427.694545 17.746847 
L 433.396364 11.421864 
L 439.098182 6.998927 
L 444.8 4.523125 
L 450.501818 4.019698 
L 456.203636 5.493778 
L 461.905455 8.930337 
L 467.607273 14.294341 
L 473.309091 21.531109 
L 479.010909 30.566866 
L 484.712727 41.309498 
L 490.414545 53.64949 
L 496.116364 67.461045 
L 501.818182 82.603361 
L 507.52 98.922074 
L 513.221818 116.250824 
L 518.923636 134.412954 
L 524.625455 153.223315 
L 530.327273 172.490146 
L 536.029091 192.017033 
L 541.730909 211.604913 
L 547.432727 231.054099 
L 553.134545 250.16632 
L 558.836364 268.746738 
L 564.538182 286.605938 
L 570.24 303.561856 
" clip-path="url(#p12576f4e3f)" style="fill: none; stroke: #4c72b0; stroke-width: 1.75; stroke-linecap: round"/>
   </g>
   <g id="line2d_35">
    <path d="M 5.76 3.96 
L 11.461818 4.949058 
L 17.163636 7.906148 
L 22.865455 12.801124 
L 28.567273 19.584087 
L 34.269091 28.185887 
L 39.970909 38.518834 
L 45.672727 50.477591 
L 51.374545 63.940246 
L 57.076364 78.769556 
L 62.778182 94.814344 
L 68.48 111.911045 
L 74.181818 129.885369 
L 79.883636 148.554078 
L 85.585455 167.726857 
L 91.287273 187.208252 
L 96.989091 206.799662 
L 102.690909 226.301365 
L 108.392727 245.514553 
L 114.094545 264.24336 
L 119.796364 282.296858 
L 125.498182 299.491003 
L 131.2 315.650512 
L 136.901818 330.610647 
L 142.603636 344.218901 
L 148.305455 356.336546 
L 154.007273 366.840049 
L 159.709091 375.622335 
L 165.410909 382.593874 
L 171.112727 387.683594 
L 176.814545 390.83961 
L 182.516364 392.029748 
L 188.218182 391.241875 
L 193.92 388.484024 
L 199.621818 383.784308 
L 205.323636 377.190639 
L 211.025455 368.770234 
L 216.727273 358.608934 
L 222.429091 346.810328 
L 228.130909 333.494695 
L 233.832727 318.797778 
L 239.534545 302.869405 
L 245.236364 285.871954 
L 250.938182 267.978705 
L 256.64 249.372066 
L 262.341818 230.241722 
L 268.043636 210.782694 
L 273.745455 191.193354 
L 279.447273 171.673404 
L 285.149091 152.421837 
L 290.850909 133.634911 
L 296.552727 115.504145 
L 302.254545 98.214373 
L 307.956364 81.941853 
L 313.658182 66.852472 
L 319.36 53.100057 
L 325.061818 40.824805 
L 330.763636 30.151856 
L 336.465455 21.190012 
L 342.167273 14.030634 
L 347.869091 8.746708 
L 353.570909 5.392099 
L 359.272727 4.001006 
L 364.974545 4.587611 
L 370.676364 7.145933 
L 376.378182 11.649891 
L 382.08 18.053571 
L 387.781818 26.291691 
L 393.483636 36.280269 
L 399.185455 47.917477 
L 404.887273 61.084682 
L 410.589091 75.647652 
L 416.290909 91.457927 
L 421.992727 108.354331 
L 427.694545 126.164616 
L 433.396364 144.707218 
L 439.098182 163.793105 
L 444.8 183.227711 
L 450.501818 202.81291 
L 456.203636 222.349045 
L 461.905455 241.636957 
L 467.607273 260.480017 
L 473.309091 278.686134 
L 479.010909 296.069706 
L 484.712727 312.453519 
L 490.414545 327.670551 
L 496.116364 341.565674 
L 501.818182 353.997235 
L 507.52 364.838503 
L 513.221818 373.978958 
L 518.923636 381.325419 
L 524.625455 386.802993 
L 530.327273 390.355839 
L 536.029091 391.94774 
L 541.730909 391.562465 
L 547.432727 389.203944 
L 553.134545 384.896219 
L 558.836364 378.683205 
L 564.538182 370.62824 
L 570.24 360.81344 
" clip-path="url(#p12576f4e3f)" style="fill: none; stroke-dasharray: 6,6; stroke-dashoffset: 0; stroke: #55a868; stroke-width: 1.75"/>
   </g>
   <g id="patch_3">
    <path d="M 5.76 392.04 
L 5.76 3.96 
" style="fill: none"/>
   </g>
   <g id="patch_4">
    <path d="M 570.24 392.04 
L 570.24 3.96 
" style="fill: none"/>
   </g>
   <g id="patch_5">
    <path d="M 5.76 392.04 
L 570.24 392.04 
" style="fill: none"/>
   </g>
   <g id="patch_6">
    <path d="M 5.76 3.96 
L 570.24 3.96 
" style="fill: none"/>
   </g>
  </g>
 </g>
 <defs>
  <clipPath id="p12576f4e3f">
   <rect x="5.76" y="3.96" width="564.48" height="388.08"/>
  </clipPath>
 </defs>
</svg>
